<?xml version="1.0" encoding="UTF-8"?>
<svg id="Layer_1" data-name="Layer 1" xmlns="http://www.w3.org/2000/svg" viewBox="0 0 210 68">
  <g>
    <path d="M49.81,66.68v-5.72h4.21v.98h-3.05v1.28h2.67v.95h-2.67v1.54h3.07v.97h-4.23Z" fill="#db8248" stroke-width="0"/>
    <path d="M55.25,66.68v-5.72h1.18l1.91,3.19c.05.09.11.2.18.34s.12.25.16.34l.06.13h.02c-.02-.39-.03-.73-.03-.99v-3h1.14v5.72h-1.12l-1.95-3.16c-.05-.09-.11-.2-.18-.33-.07-.13-.12-.24-.16-.33l-.06-.13h-.02c.02.4.03.73.03,1v2.95h-1.14Z" fill="#db8248" stroke-width="0"/>
    <path d="M60.94,61.94v-.98h4.6v.98h-1.72v4.75h-1.16v-4.75h-1.72Z" fill="#db8248" stroke-width="0"/>
    <path d="M66.61,66.68v-5.72h2.63c.55,0,.99.15,1.33.44.34.29.51.68.51,1.15,0,.73-.35,1.19-1.05,1.39v.02c.27.08.48.21.61.38.14.17.22.43.26.77.01.13.02.28.04.45.01.17.02.31.03.41,0,.1.02.2.03.3s.03.18.06.24c.02.06.05.09.09.11v.06h-1.11s-.04-.03-.06-.06c-.02-.03-.03-.07-.04-.12s-.02-.11-.03-.16c0-.06-.02-.13-.02-.22,0-.09-.01-.17-.02-.23,0-.07-.01-.15-.02-.26,0-.11-.02-.2-.02-.26-.05-.65-.42-.98-1.12-.98h-.94v2.3h-1.16ZM67.77,61.9v1.59h1.23c.3,0,.54-.07.7-.22.16-.14.24-.33.24-.57s-.08-.43-.23-.58c-.15-.15-.38-.22-.68-.22h-1.27Z" fill="#db8248" stroke-width="0"/>
    <path d="M72.31,66.68v-5.72h4.21v.98h-3.05v1.28h2.67v.95h-2.67v1.54h3.07v.97h-4.23Z" fill="#db8248" stroke-width="0"/>
    <path d="M77.76,66.68v-5.72h2.51c.65,0,1.15.18,1.5.54.34.35.51.79.51,1.3,0,.54-.17.98-.51,1.31-.34.33-.81.5-1.4.5h-1.41v2.07h-1.2ZM78.96,61.97v1.7h1.2c.3,0,.53-.08.69-.23.16-.15.24-.36.24-.63s-.08-.47-.24-.62c-.16-.15-.38-.22-.67-.22h-1.22Z" fill="#db8248" stroke-width="0"/>
    <path d="M83.34,66.68v-5.72h2.63c.55,0,.99.15,1.33.44.34.29.51.68.51,1.15,0,.73-.35,1.19-1.05,1.39v.02c.27.08.48.21.61.38.14.17.22.43.26.77.01.13.02.28.04.45.01.17.02.31.03.41,0,.1.02.2.03.3s.03.18.06.24c.02.06.05.09.09.11v.06h-1.11s-.04-.03-.06-.06c-.02-.03-.03-.07-.04-.12s-.02-.11-.03-.16c0-.06-.02-.13-.02-.22,0-.09-.01-.17-.02-.23,0-.07-.01-.15-.02-.26,0-.11-.02-.2-.02-.26-.05-.65-.42-.98-1.12-.98h-.94v2.3h-1.16ZM84.5,61.9v1.59h1.23c.3,0,.54-.07.7-.22.16-.14.24-.33.24-.57s-.08-.43-.23-.58c-.15-.15-.38-.22-.68-.22h-1.27Z" fill="#db8248" stroke-width="0"/>
    <path d="M89.05,66.68v-5.72h1.16v5.72h-1.16Z" fill="#db8248" stroke-width="0"/>
    <path d="M93.81,66.81c-.77,0-1.37-.16-1.8-.49-.43-.33-.65-.8-.67-1.4h1.14c.04.34.16.59.36.74.2.15.51.22.92.22.33,0,.59-.06.8-.18.21-.12.31-.3.31-.56,0-.09-.01-.17-.04-.24-.02-.07-.07-.14-.15-.19-.07-.06-.14-.1-.19-.14-.05-.03-.15-.07-.3-.11-.14-.04-.25-.07-.33-.09-.07-.02-.21-.05-.42-.1-.25-.06-.45-.11-.6-.15-.16-.04-.33-.11-.52-.2s-.34-.19-.45-.3-.2-.25-.28-.43c-.08-.18-.11-.38-.11-.61,0-.55.2-.97.6-1.27.4-.3.93-.44,1.59-.44s1.17.15,1.56.46.61.75.65,1.32h-1.11c-.03-.28-.15-.49-.35-.64s-.45-.22-.76-.22-.57.06-.75.18c-.19.12-.28.29-.28.49,0,.22.09.38.28.48s.51.2.97.3c.28.06.5.11.68.16.18.05.37.12.57.22s.37.2.48.31c.11.11.21.26.29.44s.12.4.12.64c0,.57-.21,1.01-.62,1.33-.41.32-.95.48-1.61.48Z" fill="#db8248" stroke-width="0"/>
    <path d="M97.22,66.68v-5.72h4.21v.98h-3.05v1.28h2.67v.95h-2.67v1.54h3.07v.97h-4.23Z" fill="#db8248" stroke-width="0"/>
    <path d="M108.69,66.68l-.04-.77h-.02c-.35.59-.89.89-1.61.89-.84,0-1.51-.28-2.01-.83-.5-.56-.74-1.26-.74-2.13,0-.98.31-1.76.94-2.34.48-.44,1.09-.66,1.84-.66.7,0,1.26.17,1.68.52.42.35.68.81.77,1.39h-1.14c-.07-.29-.21-.52-.43-.69-.22-.17-.51-.26-.86-.26-.52,0-.92.19-1.2.57-.28.38-.42.87-.42,1.47s.15,1.08.44,1.46c.29.38.68.57,1.16.57.43,0,.78-.13,1.06-.4.28-.26.42-.56.42-.9v-.03h-1.38v-.9h2.41v3.04h-.87Z" fill="#db8248" stroke-width="0"/>
    <path d="M110.86,66.68v-5.72h4.21v.98h-3.05v1.28h2.67v.95h-2.67v1.54h3.07v.97h-4.23ZM114.19,59.66l-.76,1h-.85l.34-1h1.27Z" fill="#db8248" stroke-width="0"/>
    <path d="M116.3,66.68v-5.72h1.18l1.91,3.19c.05.09.11.2.18.34s.12.25.16.34l.06.13h.02c-.02-.39-.03-.73-.03-.99v-3h1.14v5.72h-1.12l-1.95-3.16c-.05-.09-.11-.2-.18-.33-.07-.13-.12-.24-.16-.33l-.06-.13h-.02c.02.4.03.73.03,1v2.95h-1.14Z" fill="#db8248" stroke-width="0"/>
    <path d="M122.28,66.68v-5.72h4.21v.98h-3.05v1.28h2.67v.95h-2.67v1.54h3.07v.97h-4.23ZM125.62,59.66l-.76,1h-.85l.34-1h1.27Z" fill="#db8248" stroke-width="0"/>
    <path d="M127.72,66.68v-5.72h2.63c.55,0,.99.15,1.33.44.34.29.51.68.51,1.15,0,.73-.35,1.19-1.05,1.39v.02c.27.08.48.21.61.38.14.17.22.43.26.77.01.13.02.28.04.45.01.17.02.31.03.41,0,.1.02.2.03.3s.03.18.06.24c.02.06.05.09.09.11v.06h-1.11s-.04-.03-.06-.06c-.02-.03-.03-.07-.04-.12s-.02-.11-.03-.16c0-.06-.02-.13-.02-.22,0-.09-.01-.17-.02-.23,0-.07-.01-.15-.02-.26,0-.11-.02-.2-.02-.26-.05-.65-.42-.98-1.12-.98h-.94v2.3h-1.16ZM128.88,61.9v1.59h1.23c.3,0,.54-.07.7-.22.16-.14.24-.33.24-.57s-.08-.43-.23-.58c-.15-.15-.38-.22-.68-.22h-1.27Z" fill="#db8248" stroke-width="0"/>
    <path d="M138.42,63.46v3.22h-1.02v-1.6h-2.89v1.6h-1.05v-3.22c0-1.53,1.02-2.46,2.48-2.46s2.48.94,2.48,2.46ZM134.51,64.17h2.89v-.71c0-.98-.6-1.54-1.46-1.54s-1.43.56-1.43,1.54v.71Z" fill="#db8248" stroke-width="0"/>
    <path d="M139.84,66.68v-5.72h1.16v4.75h2.69v.97h-3.85Z" fill="#db8248" stroke-width="0"/>
    <path d="M144.81,66.68v-5.72h4.21v.98h-3.05v1.28h2.67v.95h-2.67v1.54h3.07v.97h-4.23Z" fill="#db8248" stroke-width="0"/>
    <path d="M152.08,66.68v-5.72h2.23c.76,0,1.37.27,1.83.82.46.55.69,1.25.69,2.1,0,.99-.3,1.74-.91,2.25-.44.37-1.01.55-1.7.55h-2.14ZM153.24,65.68h.9c.53,0,.91-.15,1.15-.46s.36-.75.36-1.34-.13-1.06-.38-1.4c-.25-.35-.62-.52-1.1-.52h-.93v3.73Z" fill="#db8248" stroke-width="0"/>
    <path d="M160.16,66.78c-.74,0-1.3-.17-1.68-.5-.38-.33-.58-.81-.58-1.44v-3.88h1.16v3.88c0,.67.36,1.01,1.07,1.01.36,0,.63-.09.81-.28.18-.19.27-.44.27-.74v-3.87h1.16v3.88c0,.62-.19,1.1-.56,1.43-.38.34-.93.5-1.65.5Z" fill="#db8248" stroke-width="0"/>
    <path d="M165.53,66.68v-5.72h2.56c.61,0,1.08.14,1.38.42.3.27.46.63.46,1.07,0,.56-.3.94-.9,1.14v.02c.32.1.58.27.77.52.19.25.29.55.29.9,0,.51-.17.9-.5,1.19-.35.3-.83.46-1.44.46h-2.63ZM166.69,63.27h1.26c.26,0,.46-.06.62-.18.15-.12.23-.29.23-.51s-.07-.38-.22-.5c-.15-.12-.35-.18-.6-.18h-1.28v1.36ZM166.69,64.12v1.6h1.34c.28,0,.5-.07.66-.21.16-.14.24-.33.24-.56,0-.26-.09-.46-.26-.61-.17-.14-.4-.22-.67-.22h-1.31Z" fill="#db8248" stroke-width="0"/>
    <path d="M176.27,63.46v3.22h-1.02v-1.6h-2.89v1.6h-1.05v-3.22c0-1.53,1.02-2.46,2.48-2.46s2.48.94,2.48,2.46ZM172.36,64.17h2.89v-.71c0-.98-.6-1.54-1.46-1.54s-1.43.56-1.43,1.54v.71ZM173.81,60.03l-.46.66-.85-.05.86-1.02h.91l.85,1.02-.84.05-.46-.66Z" fill="#db8248" stroke-width="0"/>
    <path d="M177.39,61.94v-.98h4.6v.98h-1.72v4.75h-1.16v-4.75h-1.72Z" fill="#db8248" stroke-width="0"/>
    <path d="M183.08,66.68v-5.72h1.16v5.72h-1.16Z" fill="#db8248" stroke-width="0"/>
    <path d="M185.61,66.68v-5.72h1.63l.81,2.87c.06.21.12.45.18.71.06.26.11.46.14.61l.04.22h.02c.1-.55.22-1.06.35-1.54l.81-2.87h1.66v5.72h-1.08v-3.28l.05-1.18h-.02c-.09.45-.17.81-.25,1.09l-.98,3.38h-1.11l-.96-3.38-.25-1.09h-.02c.03.48.05.88.05,1.18v3.28h-1.07Z" fill="#db8248" stroke-width="0"/>
    <path d="M192.62,66.68v-5.72h4.21v.98h-3.05v1.28h2.67v.95h-2.67v1.54h3.07v.97h-4.23Z" fill="#db8248" stroke-width="0"/>
    <path d="M198.06,66.68v-5.72h1.18l1.91,3.19c.05.09.11.2.18.34s.12.25.16.34l.06.13h.02c-.02-.39-.03-.73-.03-.99v-3h1.14v5.72h-1.12l-1.95-3.16c-.05-.09-.11-.2-.18-.33-.07-.13-.12-.24-.16-.33l-.06-.13h-.02c.02.4.03.73.03,1v2.95h-1.14Z" fill="#db8248" stroke-width="0"/>
    <path d="M203.75,61.94v-.98h4.6v.98h-1.72v4.75h-1.16v-4.75h-1.72Z" fill="#db8248" stroke-width="0"/>
  </g>
  <path d="M43.12,43.25c-.39-2.68-1.31-5.29-2.72-7.62-1.31-2.16-2.99-4.07-4.98-5.64-3.63-2.86-8.28-4.45-12.89-4.46-1.97,0-3.95.3-5.84.85-1.77.51-3.47,1.27-5.03,2.23-.8.49-1.56,1.02-2.28,1.6-.73.58-1.34,1.35-2.08,1.9.11-.23.28-.45.42-.66l1.07-1.05,1.17-1.07,1.65-1.29,2.12-1.29V.71h-.23l-1.17.7-2.47,1.54-2.83,1.77-3.06,1.89-2.24,1.42v31.69c0,2.68-.18,5.38.03,8.06.18,2.47.73,4.88,1.73,7.15.77,1.77,1.79,3.43,3.02,4.91,1.47,1.78,3.25,3.3,5.23,4.49.77.47,1.58.89,2.41,1.25.7.31,1.46.5,2.18.74,3.87,1.29,8.13,1.24,12.04.09,3.9-1.15,7.5-3.39,10.13-6.5,2.78-3.29,4.41-7.47,4.77-11.75.13-1.65.09-3.29-.15-4.91h0ZM33.58,47.7c-.28,2.41-1.34,4.73-3.02,6.49-3.06,3.18-8.01,4.28-12.1,2.63-2.09-.84-3.95-2.32-5.19-4.19-1.81-2.75-2.32-6.31-1.34-9.45s3.43-5.79,6.49-7.01c4.28-1.71,9.32-.54,12.38,2.89,1.27,1.42,2.2,3.16,2.6,5.02.27,1.2.31,2.43.18,3.64h0Z" fill="#eb7c42" stroke-width="0"/>
  <path d="M15.86,67.13H1.71v-14.36c.46,1.09.94,2.17,1.47,3.24,1.05,2.14,2.45,4.09,4.14,5.76,1.6,1.59,3.45,2.89,5.43,3.95,1,.54,2.04,1.01,3.1,1.43h0Z" fill="#3b3b48" stroke-width="0"/>
  <path d="M14.8,2.83v23.2c3.44-1.51,7.23-2.01,10.95-1.85.07,0,1.19.05,1.19.08v-14.36L14.8,2.83h0Z" fill="#3b3b48" stroke-width="0"/>
  <g>
    <path d="M75.47,43.33c-.36-1.01-.94-1.94-1.69-2.71-.93-.96-2.03-1.44-3.21-2.02,2.15-.9,3.91-2.64,4.33-5,.29-1.59-.08-3.29-1-4.63-.8-1.16-1.99-2.03-3.28-2.61-2.16-.97-4.38-1.19-6.72-1.17-1.33.01-2.66.01-3.99.01-3.34,0-6.68,0-10.02,0h-.11v28.79h5.16c3.05,0,6.09.02,9.14.02,1.57,0,3.15-.09,4.68-.45,2.17-.51,4.27-1.59,5.62-3.36,1.37-1.8,1.84-4.24,1.24-6.42-.04-.16-.09-.31-.15-.47ZM58.27,32.39c.08-.2.42-.12.59-.12.25,0,.51,0,.76,0,.51,0,1.02,0,1.52,0,.88,0,1.77-.05,2.65,0,.41.02.83.07,1.2.26.45.22.79.63.97,1.1s.21.98.13,1.47c-.09.49-.3.97-.66,1.31-.49.46-1.18.62-1.85.66-.78.04-1.57.01-2.35.02-.83,0-1.66.01-2.5.01h-.38l-.11-.12v-3.71c0-.15-.06-.65.02-.87ZM66.91,46.12c-.12.44-.37.85-.71,1.15-.68.6-1.64.77-2.55.83-1.04.07-2.09.07-3.14.05-.4,0-.8-.01-1.19-.02-.2,0-.4,0-.6,0-.13,0-.35.06-.44-.08-.02-.03-.03-.07-.03-.11-.03-.41,0-.83,0-1.24,0-.58,0-1.16,0-1.73,0-.5,0-1,0-1.5,0-.03,0-.5,0-.5,1.56,0,3.11-.02,4.67-.05.7-.01,1.4.02,2.07.21.86.25,1.64.78,1.91,1.67.13.43.12.89,0,1.32Z" fill="#383948" stroke-width="0"/>
    <path d="M105.79,34.99c-1.34-6.86-8.6-10.88-15.26-9.93-2.74.39-5.33,1.61-7.42,3.41-2.45,2.11-3.57,4.6-4.1,7.76-.15.91-.27,18.11-.08,18.11h8.34l.12-.11.12-6.35h9.99l.11,6.35.12.11h8.35l.11-.11c0-3.07,0-6.14,0-9.21,0-3.21.23-6.78-.4-10.04ZM97.61,41.78h-10.1l-.12-.12c-.31-.31,0-2.46,0-2.94.03-1.86.28-3.63,1.76-4.93,1.26-1.1,3.1-1.51,4.71-1.05,4.13,1.17,3.75,5.64,3.75,9.05Z" fill="#393a48" stroke-width="0"/>
    <path d="M207.39,35.47c-.46-2.71-1.51-5.21-3.83-7.17s-5.22-2.95-8.19-3.19c-3.56-.29-7.27.55-10.13,2.69-4.5,3.36-4.89,8.57-4.89,13.76v12.69l.11.11h8.35l.12-.11.11-6.35h10.11v6.46h8.34l.12-.11.12-12.81c.02-2.01-.01-4.04-.34-5.96ZM199.15,41.78l-9.99.12s-.23-.12-.23-.12c-.2-.37-.02-.9-.02-1.3,0-.62-.07-1.23-.06-1.85.02-1.21.18-2.45.78-3.53.97-1.75,3.06-2.8,5.04-2.53,3.27.44,4.47,3.53,4.49,6.45,0,.21,0,2.75,0,2.75Z" fill="#393949" stroke-width="0"/>
    <path d="M108.19,25.21h25.27v6.82l-8.34.12v21.74l-.12.12h-8.46v-21.86l-8.34-.12v-6.82Z" fill="#393949" stroke-width="0"/>
    <path d="M136.28,25.21h8.46v28.67l-.12.12h-8.34v-28.79Z" fill="#383948" stroke-width="0"/>
    <line x1="163.39" y1="29.99" x2="162.79" y2="30.67" fill="none" stroke-width="0"/>
    <path d="M178.4,54h-10.4l-.8-1.23-.78-1.2-.02-.04h-.01s-.85-1.41-.85-1.41l-1.76-2.7-1.3-2-.91-1.41-.25-.36-.09.09-2.98,3.33-.11,6.81-.12.12h-8.46v-28.79h8.58l.11,10.69,4.54-5.23.6-.68,3.61-4.15.08-.1.46-.53c3.34,0,6.69-.03,10.03.04-2.57,2.94-5.21,5.83-7.81,8.75l-2.46,2.96,2.24,3.41,3.87,5.99,2,3.06,1.65,2.58.07.1,1.27,1.9Z" fill="#383948" stroke-width="0"/>
  </g>
</svg>