<?xml version="1.0" encoding="UTF-8"?>
<svg id="Layer_1" data-name="Layer 1" xmlns="http://www.w3.org/2000/svg" viewBox="0 0 512 512">
  <path d="M412.92,325.04c-3.01-20.39-9.95-40.15-20.7-57.9-9.92-16.37-22.76-30.99-37.8-42.84-27.58-21.71-62.93-33.88-98-33.9-14.99,0-30.02,2.23-44.4,6.44-13.43,3.93-26.32,9.66-38.27,16.95-6.05,3.69-11.85,7.78-17.36,12.24-5.48,4.44-10.19,10.28-15.76,14.43.77-1.73,2.1-3.4,3.18-5.03l8.07-8.04,8.95-8.07,12.54-9.85,16.11-9.83V1.74h-1.78l-8.95,5.38-18.8,11.64-21.49,13.42-23.28,14.33s-17.02,10.76-17.02,10.76v240.97c0,20.43-1.3,40.89.18,61.29,1.36,18.76,5.56,37.13,13.13,54.38,5.89,13.41,13.63,26.02,22.99,37.29,11.22,13.51,24.75,25.09,39.79,34.17,5.89,3.56,12.02,6.73,18.33,9.48,5.37,2.34,11.03,3.76,16.6,5.61,29.45,9.81,61.82,9.4,91.56.68,29.67-8.71,57.02-25.76,77.01-49.45,21.09-24.99,33.5-56.8,36.29-89.29,1.07-12.48.69-25.03-1.13-37.34ZM340.28,358.93c-2.16,18.32-10.15,36-22.94,49.32-23.24,24.2-60.85,32.47-91.99,19.96-15.94-6.4-29.99-17.58-39.47-31.94-13.78-20.87-17.61-48-10.15-71.87,7.47-23.87,26.08-43.98,49.29-53.28,32.46-12.99,70.89-4.06,94.16,21.95,9.65,10.79,16.66,23.99,19.79,38.15,2.01,9.08,2.4,18.47,1.31,27.69Z" fill="#cfcde7" stroke-width="0"/>
  <path d="M205.62,506.71h-107.48v-109.22c2.04,4.92,4.16,9.61,6.43,14.14l.76,1.97,7.19,15.2,10.74,17.02,8.02,9.91,8.09,8.93,7.11,7.19,9.91,8.02,8.93,6.28,15.2,8.93,3.55,1.51c12.86,7.26,21.56,10.14,21.56,10.14Z" fill="#cfcde7" stroke-width="0"/>
  <path d="M205.62,506.69c-17.07.02-34.15.02-51.22.02h-56.26s0-109.22,0-109.22c3.44,8.29,7.19,16.54,11.14,24.6,7.95,16.26,18.63,31.02,31.49,43.75,12.18,12.05,26.21,21.95,41.29,30.02,7.63,4.09,15.52,7.69,23.56,10.84Z" fill="#cfcde7" stroke-width="0"/>
  <path d="M197.55,17.87s0,176.38,0,176.38c26.1-11.47,54.9-15.3,83.23-14.07.47.02,8.99.39,8.99.64v-109.23l-92.22-53.72Z" fill="#cfcde7" stroke-width="0"/>
</svg>