<?xml version="1.0" encoding="UTF-8"?>
<svg id="Layer_1" data-name="Layer 1" xmlns="http://www.w3.org/2000/svg" viewBox="0 0 512 512">
  <rect x="0" width="512" height="512" fill="#f7f7f8" stroke-width="0"/>
  <g>
    <path d="M427.71,326.72c-3.03-20.51-10.01-40.39-20.83-58.24-9.98-16.47-22.89-31.18-38.03-43.09-27.74-21.84-63.3-34.08-98.58-34.1-15.08,0-30.2,2.24-44.67,6.47-13.51,3.95-26.48,9.72-38.49,17.05-6.08,3.71-11.92,7.83-17.46,12.31-5.52,4.46-10.25,10.35-15.85,14.51.78-1.74,2.12-3.42,3.2-5.06l8.12-8.09,9-8.12,12.62-9.91,16.21-9.89V1.5h-1.8l-9,5.41-18.91,11.71-21.62,13.5-23.41,14.41s-17.12,10.82-17.12,10.82v242.4c0,20.55-1.3,41.13.18,61.66,1.36,18.87,5.6,37.35,13.21,54.7,5.92,13.49,13.71,26.17,23.13,37.51,11.29,13.59,24.9,25.24,40.03,34.37,5.93,3.58,12.09,6.77,18.44,9.54,5.4,2.35,11.09,3.78,16.7,5.65,29.63,9.86,62.19,9.46,92.1.68,29.85-8.76,57.36-25.91,77.47-49.75,21.21-25.14,33.7-57.14,36.51-89.82,1.08-12.55.69-25.17-1.14-37.56ZM354.64,360.81c-2.17,18.43-10.21,36.21-23.08,49.62-23.38,24.35-61.21,32.66-92.54,20.08-16.03-6.44-30.17-17.69-39.7-32.12-13.86-20.99-17.72-48.29-10.21-72.3,7.51-24.01,26.23-44.24,49.59-53.59,32.65-13.07,71.31-4.09,94.71,22.08,9.71,10.85,16.76,24.13,19.91,38.37,2.02,9.13,2.41,18.58,1.32,27.86Z" fill="#f4763c" stroke-width="0"/>
    <path d="M219.18,509.46h-108.12v-109.87c2.05,4.95,4.18,9.66,6.47,14.23l.76,1.98,7.23,15.29,10.8,17.12,8.07,9.97,8.14,8.98,7.15,7.23,9.97,8.07,8.98,6.31,15.29,8.98,3.58,1.52c12.93,7.3,21.68,10.2,21.68,10.2Z" fill="#3e3b49" stroke-width="0"/>
    <path d="M219.18,509.44c-17.17.02-34.35.02-51.52.02h-56.6s0-109.87,0-109.87c3.46,8.34,7.24,16.64,11.2,24.75,8,16.35,18.74,31.2,31.68,44.01,12.25,12.12,26.37,22.08,41.54,30.2,7.68,4.11,15.61,7.74,23.7,10.9Z" fill="#3a3a48" stroke-width="0"/>
    <path d="M211.05,17.72s0,177.43,0,177.43c26.26-11.54,55.23-15.39,83.73-14.16.47.02,9.04.39,9.04.65v-109.88l-92.77-54.04Z" fill="#3a3a48" stroke-width="0"/>
  </g>
</svg>