<?xml version="1.0" encoding="UTF-8"?>
<svg id="Layer_1" data-name="Layer 1" xmlns="http://www.w3.org/2000/svg" version="1.1" viewBox="0 0 512 512">
  <defs>
    <style>
      .cls-1 {
        fill: #f26a3b;
      }

      .cls-1, .cls-2, .cls-3, .cls-4 {
        stroke-width: 0px;
      }

      .cls-2 {
        fill: #fff;
      }

      .cls-3 {
        fill: #3a3a48;
      }

      .cls-4 {
        fill: #fefefe;
      }
    </style>
  </defs>
  <rect class="cls-2" x="1" width="510" height="510"/>
  <path class="cls-1" d="M403.4,322.1c-2.8-19.2-9.4-37.8-19.5-54.4-9.4-15.5-21.4-29.1-35.6-40.3-25.9-20.4-59.2-31.8-92.2-31.9-14.1,0-28.2,2.2-41.7,6.1-12.6,3.7-24.7,9.1-36,15.9-5.7,3.5-11.1,7.3-16.3,11.4-5.2,4.1-9.6,9.6-14.8,13.6.7-1.6,2.1-3.2,3-4.7l7.6-7.5,8.4-7.6,11.8-9.3,15.2-9.3V18.1h-1.6l-8.4,5-17.6,11-20.2,12.6-21.9,13.5-16,10.1v226.5c0,19.2-1.2,38.4.2,57.6,1.2,17.6,5.2,34.8,12.4,51.1,5.5,12.6,12.8,24.5,21.5,35,10.5,12.7,23.2,23.6,37.4,32.1,5.5,3.4,11.2,6.4,17.2,9,5,2.2,10.4,3.6,15.6,5.3,27.6,9.3,58.1,8.9,86.1.7,27.8-8.2,53.6-24.2,72.4-46.5,19.9-23.5,31.5-53.4,34.1-83.9.9-11.8.7-23.5-1-35h0ZM335.2,353.9c-2.1,17.2-9.6,33.8-21.5,46.4-21.9,22.8-57.2,30.5-86.5,18.8-14.9-6-28.2-16.6-37.1-30-12.9-19.7-16.6-45.1-9.6-67.5s24.5-41.3,46.4-50.1c30.5-12.3,66.6-3.8,88.4,20.6,9.1,10.1,15.7,22.6,18.6,35.9,2,8.6,2.2,17.3,1.2,26h0Z"/>
  <path class="cls-3" d="M208.5,492.7h-101.1v-102.7c3.3,7.8,6.7,15.6,10.5,23.1,7.5,15.4,17.5,29.2,29.6,41.1,11.4,11.3,24.6,20.6,38.9,28.2,7.1,3.8,14.5,7.2,22.2,10.2h0Z"/>
  <path class="cls-3" d="M201,33.2v165.7c24.5-10.8,51.6-14.3,78.2-13.2.5,0,8.5.4,8.5.6v-102.7l-86.7-50.5h0Z"/>
  <rect class="cls-4" x="-169" y="36" width="42" height="235"/>
</svg>