<?xml version="1.0" encoding="UTF-8"?>
<svg id="Layer_1" data-name="Layer 1" xmlns="http://www.w3.org/2000/svg" version="1.1" viewBox="0 0 209.9 68.3">
  <defs>
    <style>
      .cls-1 {
        fill: #3b3b48;
      }

      .cls-1, .cls-2, .cls-3 {
        stroke-width: 0px;
      }

      .cls-2 {
        fill: #f16b3b;
      }

      .cls-3 {
        fill: #383948;
      }
    </style>
  </defs>
  <g>
    <path class="cls-2" d="M49.4,67v-5.8h4.2v1h-3.1v1.3h2.7v1h-2.7v1.6h3.1v1h-4.3,0Z"/>
    <path class="cls-2" d="M54.9,67v-5.8h1.2l1.9,3.2c0,0,.1.2.2.3s.1.2.2.3h0c0,.1,0,.1,0,.1,0-.4,0-.7,0-1v-3h1.2v5.8h-1.1l-2-3.2c0,0-.1-.2-.2-.3s-.1-.2-.2-.3h0c0-.1,0-.1,0-.1,0,.4,0,.7,0,1v3h-1.2Z"/>
    <path class="cls-2" d="M60.6,62.2v-1h4.6v1h-1.7v4.8h-1.2v-4.8h-1.7Z"/>
    <path class="cls-2" d="M66.3,67v-5.8h2.6c.6,0,1,.2,1.3.4.3.3.5.7.5,1.2,0,.7-.3,1.2-1.1,1.4h0c.3,0,.5.2.6.4s.2.4.3.8c0,.1,0,.3,0,.5,0,.2,0,.3,0,.4,0,0,0,.2,0,.3s0,.2,0,.2c0,0,0,0,0,.1h0c0,0-1.1,0-1.1,0,0,0,0,0,0,0s0,0,0-.1,0-.1,0-.2c0,0,0-.1,0-.2s0-.2,0-.2c0,0,0-.2,0-.3,0-.1,0-.2,0-.3,0-.7-.4-1-1.1-1h-.9v2.3h-1.2ZM67.5,62.2v1.6h1.2c.3,0,.5,0,.7-.2.2-.1.2-.3.2-.6s0-.4-.2-.6c-.2-.2-.4-.2-.7-.2h-1.3Z"/>
    <path class="cls-2" d="M72.1,67v-5.8h4.2v1h-3.1v1.3h2.7v1h-2.7v1.6h3.1v1h-4.3,0Z"/>
    <path class="cls-2" d="M77.5,67v-5.8h2.5c.7,0,1.2.2,1.5.5.3.3.5.8.5,1.3s-.2,1-.5,1.3c-.3.3-.8.5-1.4.5h-1.4v2.1h-1.2ZM78.7,62.3v1.7h1.2c.3,0,.5,0,.7-.2.2-.2.2-.4.2-.6s0-.5-.2-.6c-.2-.2-.4-.2-.7-.2h-1.2Z"/>
    <path class="cls-2" d="M83.2,67v-5.8h2.6c.6,0,1,.2,1.3.4.3.3.5.7.5,1.2,0,.7-.3,1.2-1.1,1.4h0c.3,0,.5.2.6.4s.2.4.3.8c0,.1,0,.3,0,.5,0,.2,0,.3,0,.4,0,0,0,.2,0,.3s0,.2,0,.2c0,0,0,0,0,.1h0c0,0-1.1,0-1.1,0,0,0,0,0,0,0s0,0,0-.1,0-.1,0-.2c0,0,0-.1,0-.2s0-.2,0-.2c0,0,0-.2,0-.3,0-.1,0-.2,0-.3,0-.7-.4-1-1.1-1h-.9v2.3h-1.2ZM84.3,62.2v1.6h1.2c.3,0,.5,0,.7-.2.2-.1.2-.3.2-.6s0-.4-.2-.6c-.2-.2-.4-.2-.7-.2h-1.3Z"/>
    <path class="cls-2" d="M88.9,67v-5.8h1.2v5.8h-1.2Z"/>
    <path class="cls-2" d="M93.7,67.1c-.8,0-1.4-.2-1.8-.5s-.7-.8-.7-1.4h1.1c0,.3.2.6.4.7s.5.2.9.2.6,0,.8-.2.3-.3.3-.6,0-.2,0-.2c0,0,0-.1-.2-.2,0,0-.1,0-.2-.1,0,0-.2,0-.3-.1s-.2,0-.3,0-.2,0-.4,0c-.2,0-.4-.1-.6-.2s-.3-.1-.5-.2-.3-.2-.4-.3-.2-.2-.3-.4-.1-.4-.1-.6c0-.5.2-1,.6-1.3s.9-.5,1.6-.5,1.2.2,1.6.5.6.8.7,1.3h-1.1c0-.3-.2-.5-.3-.6s-.4-.2-.8-.2-.6,0-.8.2c-.2.1-.3.3-.3.5s0,.4.3.5.5.2,1,.3c.3,0,.5.1.7.2.2,0,.4.1.6.2.2,0,.4.2.5.3.1.1.2.3.3.4s.1.4.1.6c0,.6-.2,1-.6,1.3-.4.3-.9.5-1.6.5h0Z"/>
    <path class="cls-2" d="M97.1,67v-5.8h4.2v1h-3.1v1.3h2.7v1h-2.7v1.6h3.1v1h-4.3,0Z"/>
    <path class="cls-2" d="M108.6,67v-.8h0c-.3.6-.9.9-1.6.9s-1.5-.3-2-.8-.8-1.3-.8-2.1.3-1.8.9-2.3c.5-.4,1.1-.7,1.8-.7s1.3.2,1.7.5c.4.3.7.8.8,1.4h-1.1c0-.3-.2-.5-.4-.7-.2-.2-.5-.3-.9-.3-.5,0-.9.2-1.2.6s-.4.9-.4,1.5.2,1.1.4,1.5c.3.4.7.6,1.2.6s.8-.1,1.1-.4c.3-.3.4-.6.4-.9h0s-1.4,0-1.4,0v-.9h2.4v3.1h-.9Z"/>
    <path class="cls-2" d="M110.8,67v-5.8h4.2v1h-3.1v1.3h2.7v1h-2.7v1.6h3.1v1h-4.3,0ZM114.2,59.9l-.8,1h-.8l.3-1h1.3,0Z"/>
    <path class="cls-2" d="M116.3,67v-5.8h1.2l1.9,3.2c0,0,.1.2.2.3s.1.2.2.3h0c0,.1,0,.1,0,.1,0-.4,0-.7,0-1v-3h1.2v5.8h-1.1l-2-3.2c0,0-.1-.2-.2-.3s-.1-.2-.2-.3h0c0-.1,0-.1,0-.1,0,.4,0,.7,0,1v3h-1.2Z"/>
    <path class="cls-2" d="M122.3,67v-5.8h4.2v1h-3.1v1.3h2.7v1h-2.7v1.6h3.1v1h-4.3,0ZM125.7,59.9l-.8,1h-.8l.3-1h1.3,0Z"/>
    <path class="cls-2" d="M127.8,67v-5.8h2.6c.6,0,1,.2,1.3.4.3.3.5.7.5,1.2,0,.7-.4,1.2-1.1,1.4h0c.3,0,.5.2.6.4s.2.4.3.8c0,.1,0,.3,0,.5,0,.2,0,.3,0,.4,0,0,0,.2,0,.3s0,.2,0,.2c0,0,0,0,0,.1h0c0,0-1.1,0-1.1,0,0,0,0,0,0,0s0,0,0-.1,0-.1,0-.2c0,0,0-.1,0-.2s0-.2,0-.2c0,0,0-.2,0-.3,0-.1,0-.2,0-.3,0-.7-.4-1-1.1-1h-.9v2.3h-1.2,0ZM128.9,62.2v1.6h1.2c.3,0,.5,0,.7-.2.2-.1.2-.3.2-.6s0-.4-.2-.6c-.2-.2-.4-.2-.7-.2h-1.3Z"/>
    <path class="cls-2" d="M138.5,63.8v3.2h-1v-1.6h-2.9v1.6h-1.1v-3.2c0-1.5,1-2.5,2.5-2.5s2.5.9,2.5,2.5h0ZM134.6,64.5h2.9v-.7c0-1-.6-1.5-1.5-1.5s-1.4.6-1.4,1.5v.7h0Z"/>
    <path class="cls-2" d="M140,67v-5.8h1.2v4.8h2.7v1h-3.9Z"/>
    <path class="cls-2" d="M145,67v-5.8h4.2v1h-3.1v1.3h2.7v1h-2.7v1.6h3.1v1h-4.3,0Z"/>
    <path class="cls-2" d="M152.3,67v-5.8h2.2c.8,0,1.4.3,1.8.8.5.5.7,1.2.7,2.1s-.3,1.8-.9,2.3c-.4.4-1,.6-1.7.6h-2.1ZM153.4,66h.9c.5,0,.9-.2,1.2-.5s.4-.8.4-1.3-.1-1.1-.4-1.4-.6-.5-1.1-.5h-.9s0,3.8,0,3.7Z"/>
    <path class="cls-2" d="M160.4,67.1c-.7,0-1.3-.2-1.7-.5-.4-.3-.6-.8-.6-1.4v-3.9h1.2v3.9c0,.7.4,1,1.1,1s.6,0,.8-.3.3-.4.3-.8v-3.9h1.2v3.9c0,.6-.2,1.1-.6,1.4-.4.3-.9.5-1.7.5h0Z"/>
    <path class="cls-2" d="M165.8,67v-5.8h2.6c.6,0,1.1.1,1.4.4.3.3.5.6.5,1.1s-.3,1-.9,1.2h0c.3.1.6.3.8.5s.3.6.3.9c0,.5-.2.9-.5,1.2-.4.3-.8.5-1.4.5h-2.6ZM167,63.6h1.3c.3,0,.5,0,.6-.2.2-.1.2-.3.2-.5s0-.4-.2-.5-.4-.2-.6-.2h-1.3v1.4h0ZM167,64.4v1.6h1.4c.3,0,.5,0,.7-.2s.2-.3.2-.6,0-.5-.3-.6c-.2-.2-.4-.2-.7-.2h-1.3Z"/>
    <path class="cls-2" d="M176.6,63.8v3.2h-1v-1.6h-2.9v1.6h-1.1v-3.2c0-1.5,1-2.5,2.5-2.5s2.5.9,2.5,2.5h0ZM172.7,64.5h2.9v-.7c0-1-.6-1.5-1.5-1.5s-1.4.6-1.4,1.5v.7h0ZM174.1,60.3l-.5.7h-.9s.9-1.1.9-1.1h.9l.9,1h-.8s-.5-.6-.5-.6Z"/>
    <path class="cls-2" d="M177.7,62.2v-1h4.6v1h-1.7v4.8h-1.2v-4.8h-1.7Z"/>
    <path class="cls-2" d="M183.4,67v-5.8h1.2v5.8h-1.2Z"/>
    <path class="cls-2" d="M186,67v-5.8h1.6l.8,2.9c0,.2.1.4.2.7s.1.5.1.6v.2h0c.1-.6.2-1.1.4-1.6l.8-2.9h1.7v5.8h-1.1v-4.5c0,0,0,0,0,0,0,.5-.2.8-.2,1.1l-1,3.4h-1.1l-1-3.4-.2-1.1h0c0,.5,0,.9,0,1.2v3.3h-1.1,0Z"/>
    <path class="cls-2" d="M193.1,67v-5.8h4.2v1h-3.1v1.3h2.7v1h-2.7v1.6h3.1v1h-4.3,0Z"/>
    <path class="cls-2" d="M198.5,67v-5.8h1.2l1.9,3.2c0,0,.1.2.2.3s.1.2.2.3h0c0,.1,0,.1,0,.1,0-.4,0-.7,0-1v-3h1.1v5.8h-1.1l-2-3.2c0,0-.1-.2-.2-.3s-.1-.2-.2-.3h0c0-.1,0-.1,0-.1,0,.4,0,.7,0,1v3h-1.1,0Z"/>
    <path class="cls-2" d="M204.2,62.2v-1h4.6v1h-1.7v4.8h-1.2v-4.8h-1.7Z"/>
  </g>
  <path class="cls-2" d="M42.7,43.5c-.4-2.7-1.3-5.3-2.7-7.7-1.3-2.2-3-4.1-5-5.7-3.6-2.9-8.3-4.5-13-4.5-2,0-4,.3-5.9.9-1.8.5-3.5,1.3-5.1,2.2-.8.5-1.6,1-2.3,1.6-.7.6-1.3,1.4-2.1,1.9.1-.2.3-.5.4-.7l1.1-1.1,1.2-1.1,1.6-1.3,2.1-1.3V.7h-.2l-1.2.7-2.5,1.5-2.8,1.8-3.1,1.9-2.2,1.4v31.9c0,2.7-.2,5.4,0,8.1.2,2.5.7,4.9,1.7,7.2.8,1.8,1.8,3.4,3,4.9,1.5,1.8,3.3,3.3,5.3,4.5.8.5,1.6.9,2.4,1.3.7.3,1.5.5,2.2.8,3.9,1.3,8.2,1.2,12.1,0,3.9-1.2,7.5-3.4,10.2-6.5,2.8-3.3,4.4-7.5,4.8-11.8.1-1.7,0-3.3-.2-4.9h0ZM33.1,47.9c-.3,2.4-1.3,4.8-3,6.5-3.1,3.2-8.1,4.3-12.2,2.6-2.1-.8-4-2.3-5.2-4.2-1.8-2.8-2.3-6.3-1.3-9.5s3.4-5.8,6.5-7c4.3-1.7,9.4-.5,12.5,2.9,1.3,1.4,2.2,3.2,2.6,5,.3,1.2.3,2.4.2,3.7h0Z"/>
  <path class="cls-1" d="M15.3,67.5H1.1v-14.4c.5,1.1,1,2.2,1.5,3.2,1.1,2.2,2.5,4.1,4.2,5.8,1.6,1.6,3.5,2.9,5.5,4,1,.5,2.1,1,3.1,1.4h0Z"/>
  <path class="cls-1" d="M14.2,2.8v23.3c3.5-1.5,7.3-2,11-1.9,0,0,1.2,0,1.2,0v-14.4L14.2,2.8h0Z"/>
  <g>
    <path class="cls-3" d="M75.2,43.5c-.4-1-.9-2-1.7-2.7-.9-1-2-1.5-3.2-2,2.2-.9,3.9-2.7,4.4-5,.3-1.6,0-3.3-1-4.6-.8-1.2-2-2-3.3-2.6-2.2-1-4.4-1.2-6.8-1.2-1.3,0-2.7,0-4,0h-10.2v29h5.2c3.1,0,6.1,0,9.2,0s3.2,0,4.7-.5c2.2-.5,4.3-1.6,5.7-3.4,1.4-1.8,1.8-4.3,1.2-6.5,0-.2,0-.3-.2-.5h0ZM57.9,32.5c0-.2.4-.1.6-.1h2.3c.9,0,1.8,0,2.7,0,.4,0,.8,0,1.2.3.4.2.8.6,1,1.1.2.5.2,1,.1,1.5,0,.5-.3,1-.7,1.3-.5.5-1.2.6-1.9.7-.8,0-1.6,0-2.4,0-.8,0-1.7,0-2.5,0h-.5v-3.8c0-.2,0-.7,0-.9h0ZM66.6,46.3c-.1.4-.4.8-.7,1.2-.7.6-1.7.8-2.6.8-1,0-2.1,0-3.2,0-.4,0-.8,0-1.2,0h-.6c-.1,0-.3,0-.4,0,0,0,0,0,0-.1,0-.4,0-.8,0-1.2v-3.8c1.6,0,3.1,0,4.7,0,.7,0,1.4,0,2.1.2.9.2,1.7.8,1.9,1.7.1.4.1.9,0,1.3h0Z"/>
    <path class="cls-3" d="M90.4,25.2c-2.8.4-5.4,1.6-7.5,3.4-2.5,2.1-3.6,4.6-4.1,7.8-.2.9-.3,18.2,0,18.2h8.5c0-.1.1-6.5.1-6.5h10.1v6.4c.1,0,.2.1.2.1h8.5v-9.4c0-3.2.2-6.8-.4-10.1-1.3-6.9-8.7-10.9-15.3-10h0ZM97.5,42h-10.3c-.3-.4,0-2.6,0-3.1,0-1.9.3-3.7,1.8-5,1.3-1.1,3.1-1.5,4.7-1.1,4.2,1.2,3.8,5.7,3.8,9.1h0Z"/>
    <path class="cls-3" d="M207.9,35.6c-.5-2.7-1.5-5.2-3.9-7.2-2.3-1.9-5.2-3-8.2-3.2-3.6-.3-7.3.5-10.2,2.7-4.5,3.4-4.9,8.6-4.9,13.8v12.8h.1c0,.1,8.4.1,8.4.1h.1c0-.1.1-6.5.1-6.5h10.2v6.5h8.5c0-.1.1-12.9.1-13,0-2,0-4.1-.3-6h0ZM199.6,42h-10.3c0,0,0-.2,0-.3,0-.2,0-.4,0-.6,0-.5,0-1.1,0-1.6,0-.6,0-1.2.1-1.7,0-.7.3-1.5.6-2.1,0-.2.2-.4.3-.6.2-.4.6-.8.9-1.1.6-.5,1.2-.9,2-1.1,0,0,.1,0,.2,0,.6-.1,1.2-.2,1.8,0,3.3.5,4.5,3.5,4.5,6.5,0,.2,0,2.8,0,2.8Z"/>
    <polygon class="cls-3" points="108.1 32.2 116.5 32.3 116.5 54.3 125 54.3 125.2 54.1 125.2 32.3 133.6 32.2 133.6 25.3 108.1 25.3 108.1 32.2"/>
    <polygon class="cls-3" points="136.4 54.3 144.8 54.3 144.9 54.1 144.9 25.3 136.4 25.3 136.4 54.3"/>
    <path class="cls-3" d="M177.4,52.2l-1.7-2.6-2-3.1-3.9-6-2.2-3.4,2.5-3c2.6-2.9,5.3-5.8,7.9-8.8-3.4,0-6.7,0-10.1,0l-.5.5h0c0,.1-3.6,4.3-3.6,4.3l-.6.7-4.6,5.3v-10.8h-8.7v29h8.6c0-.1.1-7,.1-7l3-3.3h0c0,0,.2.3.2.3l.9,1.4,1.3,2,1.8,2.7.9,1.4h0s.8,1.3.8,1.3l.8,1.2h10.5l-1.3-1.9h0c0,0,0-.1,0-.1Z"/>
  </g>
</svg>