<?xml version="1.0" encoding="UTF-8"?>
<svg id="Layer_1" data-name="Layer 1" xmlns="http://www.w3.org/2000/svg" version="1.1" viewBox="0 0 210 68">
  <defs>
    <style>
      .cls-1 {
        fill: #393949;
      }

      .cls-1, .cls-2, .cls-3, .cls-4, .cls-5, .cls-6, .cls-7 {
        stroke-width: 0px;
      }

      .cls-2 {
        fill: #3b3b48;
      }

      .cls-3 {
        fill: none;
      }

      .cls-4 {
        fill: #393a48;
      }

      .cls-5 {
        fill: #f16b3b;
      }

      .cls-6 {
        fill: #fff;
      }

      .cls-7 {
        fill: #383948;
      }
    </style>
  </defs>
  <rect class="cls-6" width="209.9" height="68.3"/>
  <path class="cls-5" d="M43.1,43.2c-.4-2.7-1.3-5.3-2.7-7.6-1.3-2.2-3-4.1-5-5.6-3.6-2.9-8.3-4.5-12.9-4.5s-4,.3-5.8.9c-1.8.5-3.5,1.3-5,2.2-.8.5-1.6,1-2.3,1.6s-1.3,1.4-2.1,1.9c0-.2.3-.5.4-.7l1.1-1,1.2-1.1,1.6-1.3,2.1-1.3V.7h-.2l-1.2.7-2.5,1.5-2.8,1.8-3.1,1.9-2.2,1.4v31.7c0,2.7-.2,5.4,0,8.1.2,2.5.7,4.9,1.7,7.2.8,1.8,1.8,3.4,3,4.9,1.5,1.8,3.3,3.3,5.2,4.5.8.5,1.6.9,2.4,1.2.7.3,1.5.5,2.2.7,3.9,1.3,8.1,1.2,12,0,3.9-1.2,7.5-3.4,10.1-6.5,2.8-3.3,4.4-7.5,4.8-11.8,0-1.7,0-3.3-.2-4.9h.2ZM33.6,47.7c-.3,2.4-1.3,4.7-3,6.5-3.1,3.2-8,4.3-12.1,2.6-2.1-.8-3.9-2.3-5.2-4.2-1.8-2.8-2.3-6.3-1.3-9.5s3.4-5.8,6.5-7c4.3-1.7,9.3-.5,12.4,2.9,1.3,1.4,2.2,3.2,2.6,5,.3,1.2.3,2.4.2,3.6h0Z"/>
  <path class="cls-2" d="M15.9,67.1H1.7v-14.4c.5,1.1.9,2.2,1.5,3.2,1,2.1,2.5,4.1,4.1,5.8,1.6,1.6,3.4,2.9,5.4,3.9s2,1,3.1,1.4h0Z"/>
  <path class="cls-2" d="M14.8,2.8v23.2c3.4-1.5,7.2-2,10.9-1.9h1.2v-14.4L14.8,2.8h0Z"/>
  <path class="cls-7" d="M75.5,43.3c-.4-1-.9-1.9-1.7-2.7-.9-1-2-1.4-3.2-2,2.2-.9,3.9-2.6,4.3-5,.3-1.6,0-3.3-1-4.6-.8-1.2-2-2-3.3-2.6-2.2-1-4.4-1.2-6.7-1.2h-14.1v28.8h14.3c3,0,3.2,0,4.7-.5,2.2-.5,4.3-1.6,5.6-3.4,1.4-1.8,1.8-4.2,1.2-6.4,0-.2,0-.3-.2-.5h0ZM58.3,32.4c0-.2.4,0,.6,0h5c.4,0,.8,0,1.2.3.4.2.8.6,1,1.1s.2,1,0,1.5c0,.5-.3,1-.7,1.3-.5.5-1.2.6-1.8.7h-5.3v-4.7h-.1ZM66.9,46.1c0,.4-.4.8-.7,1.2-.7.6-1.6.8-2.5.8h-5.3v-5h4.7c.7,0,1.4,0,2.1.2.9.2,1.6.8,1.9,1.7,0,.4,0,.9,0,1.3h0l-.2-.2Z"/>
  <path class="cls-4" d="M105.8,35c-1.3-6.9-8.6-10.9-15.3-9.9-2.7.4-5.3,1.6-7.4,3.4-2.4,2.1-3.6,4.6-4.1,7.8-.2.9-.3,18.1,0,18.1h8.5c0,0,0-6.5,0-6.5h10v6.3c0,0,.2,0,.2,0h8.5v-9.3c0-3.2.2-6.8-.4-10h0ZM97.6,41.8h-10.2c-.3-.4,0-2.6,0-3.1,0-1.9.3-3.6,1.8-4.9,1.3-1.1,3.1-1.5,4.7-1,4.1,1.2,3.8,5.6,3.8,9h-.1Z"/>
  <path class="cls-1" d="M207.4,35.5c-.5-2.7-1.5-5.2-3.8-7.2s-5.2-3-8.2-3.2c-3.6-.3-7.3.5-10.1,2.7-4.5,3.4-4.9,8.6-4.9,13.8v12.7h.1c0,0,8.4,0,8.4,0h.1c0,0,.1-6.5.1-6.5h10.1v6.5h8.5c0,0,.1-12.9.1-12.9,0-2,0-4-.3-6h-.1ZM199.1,41.8h-10c0,0-.2,0-.2,0-.2-.4,0-.9,0-1.3v-1.8c0-1.2.2-2.5.8-3.5,1-1.8,3.1-2.8,5-2.5,3.3.4,4.5,3.5,4.5,6.5v2.8h0v-.2Z"/>
  <path class="cls-1" d="M108.2,25.2h25.3v6.8h-8.3v21.9h0c0,0-8.5,0-8.5,0v-21.9h-8.3v-6.9h0Z"/>
  <path class="cls-7" d="M136.3,25.2h8.5v28.7h-.1c0,0-8.3,0-8.3,0v-28.8h0Z"/>
  <line class="cls-3" x1="163.4" y1="30" x2="162.8" y2="30.7"/>
  <path class="cls-7" d="M178.1,54h-10.1l-1.6-2.4-.9-1.4-1.8-2.7-1.3-2-.9-1.4-.2-.4-3,3.4v6.8c0,0-.2,0-.2,0h-8.5v-28.8h8.6v10.7c0,0,4.6-5.2,4.6-5.2l.6-.7,3.6-4.1c0-.1.5-.6.5-.6h10c-2.6,2.9-5.2,5.8-7.8,8.8l-2.5,3,2.2,3.4,3.9,6,2,3.1,1.6,2.6,1.2,1.8Z"/>
  <g>
    <path class="cls-5" d="M49.9,66.7v-5.7h4.2v1h-3v1.3h2.7v.9h-2.7v1.5h3.1v1h-4.3Z"/>
    <path class="cls-5" d="M55.4,66.7v-5.7h1.2l1.9,3.2s0,.2.2.3,0,.2.2.3h0v-3.9h1.1v5.7h-1.1l-1.9-3.1s0-.2-.2-.3c0,0,0-.2-.2-.3h0v3.8h-1.2Z"/>
    <path class="cls-5" d="M61,62v-1h4.6v1h-1.7v4.7h-1.2v-4.7s-1.7,0-1.7,0Z"/>
    <path class="cls-5" d="M66.7,66.7v-5.7h2.6c.5,0,1,0,1.3.4.3.3.5.7.5,1.1,0,.7-.3,1.2-1,1.4h0c.3,0,.5.2.6.4s.2.4.3.8v1.4h0c0,0-1.1,0-1.1,0h0v-1.3c0-.6-.4-1-1.1-1h-.9v2.3h-1.2ZM67.8,61.9v1.6h1.2c.3,0,.5,0,.7-.2.2,0,.2-.3.2-.6s0-.4-.2-.6c-.2,0-.4-.2-.7-.2h-1.3.1Z"/>
    <path class="cls-5" d="M72.3,66.7v-5.7h4.2v1h-3v1.3h2.7v.9h-2.7v1.5h3.1v1h-4.3Z"/>
    <path class="cls-5" d="M77.8,66.7v-5.7h2.5c.6,0,1.1.2,1.5.5.3.4.5.8.5,1.3s-.2,1-.5,1.3-.8.5-1.4.5h-1.4v2.1h-1.2ZM79,62v1.7h1.2c.3,0,.5,0,.7-.2s.2-.4.2-.6,0-.5-.2-.6-.4-.2-.7-.2h-1.2Z"/>
    <path class="cls-5" d="M83.3,66.7v-5.7h2.6c.5,0,1,0,1.3.4.3.3.5.7.5,1.1,0,.7-.3,1.2-1,1.4h0c.3,0,.5.2.6.4s.2.4.3.8v1.4h0c0,0-1.1,0-1.1,0h0v-1.3c0-.6-.4-1-1.1-1h-.9v2.3h-1.2ZM84.5,61.9v1.6h1.2c.3,0,.5,0,.7-.2.2,0,.2-.3.2-.6s0-.4-.2-.6c-.2,0-.4-.2-.7-.2h-1.3.1Z"/>
    <path class="cls-5" d="M89,66.7v-5.7h1.2v5.7h-1.2Z"/>
    <path class="cls-5" d="M93.7,66.8c-.8,0-1.4-.2-1.8-.5s-.6-.8-.7-1.4h1.1c0,.3.2.6.4.7.2,0,.5.2.9.2s.6,0,.8-.2c.2,0,.3-.3.3-.6s0-.2,0-.2c0,0,0,0,0-.2,0,0,0,0-.2,0,0,0-.2,0-.3,0h-.7c-.2,0-.4,0-.6-.2-.2,0-.3,0-.5-.2s-.3-.2-.4-.3-.2-.3-.3-.4c0-.2,0-.4,0-.6,0-.5.2-1,.6-1.3s.9-.4,1.6-.4,1.2.2,1.6.5.6.7.6,1.3h-1.1c0-.3,0-.5-.3-.6s-.5-.2-.8-.2-.6,0-.7.2c-.2,0-.3.3-.3.5s0,.4.3.5.5.2,1,.3c.3,0,.5,0,.7.2.2,0,.4,0,.6.2.2,0,.4.2.5.3,0,0,.2.3.3.4s0,.4,0,.6c0,.6-.2,1-.6,1.3s-.9.5-1.6.5l-.3-.2Z"/>
    <path class="cls-5" d="M97.1,66.7v-5.7h4.2v1h-3v1.3h2.7v.9h-2.7v1.5h3.1v1h-4.3Z"/>
    <path class="cls-5" d="M108.5,66.7v-.8h0c-.4.6-.9.9-1.6.9s-1.5-.3-2-.8c-.5-.6-.7-1.3-.7-2.1s.3-1.8.9-2.3c.5-.4,1.1-.7,1.8-.7s1.3.2,1.7.5c.4.3.7.8.8,1.4h-1.1c0-.3-.2-.5-.4-.7-.2-.2-.5-.3-.9-.3s-.9.2-1.2.6c-.3.4-.4.9-.4,1.5s0,1.1.4,1.5.7.6,1.2.6.8,0,1.1-.4c.3-.3.4-.6.4-.9h-1.4v-.9h2.4v3h-1Z"/>
    <path class="cls-5" d="M110.7,66.7v-5.7h4.2v1h-3v1.3h2.7v.9h-2.7v1.5h3.1v1h-4.3ZM114,59.7l-.8,1h-.8l.3-1h1.3Z"/>
    <path class="cls-5" d="M116.1,66.7v-5.7h1.2l1.9,3.2s0,.2.2.3,0,.2.2.3h0v-3.9h1.1v5.7h-1.1l-1.9-3.1s0-.2-.2-.3c0,0,0-.2-.2-.3h0v3.8h-1.2Z"/>
    <path class="cls-5" d="M122.1,66.7v-5.7h4.2v1h-3v1.3h2.7v.9h-2.7v1.5h3.1v1h-4.3ZM125.4,59.7l-.8,1h-.8l.3-1h1.3Z"/>
    <path class="cls-5" d="M127.5,66.7v-5.7h2.6c.5,0,1,0,1.3.4.3.3.5.7.5,1.1,0,.7-.3,1.2-1,1.4h0c.3,0,.5.2.6.4s.2.4.3.8v1.4h0c0,0-1.1,0-1.1,0h0v-1.3c0-.6-.4-1-1.1-1h-.9v2.3h-1.2ZM128.6,61.9v1.6h1.2c.3,0,.5,0,.7-.2.2,0,.2-.3.2-.6s0-.4-.2-.6c-.2,0-.4-.2-.7-.2h-1.3.1Z"/>
    <path class="cls-5" d="M138.1,63.5v3.2h-1v-1.6h-2.9v1.6h-1v-3.2c0-1.5,1-2.5,2.5-2.5s2.5.9,2.5,2.5h-.1ZM134.2,64.2h2.9v-.7c0-1-.6-1.5-1.4-1.5s-1.4.6-1.4,1.5v.7h-.1Z"/>
    <path class="cls-5" d="M139.6,66.7v-5.7h1.2v4.7h2.7v1h-3.9Z"/>
    <path class="cls-5" d="M144.5,66.7v-5.7h4.2v1h-3v1.3h2.7v.9h-2.7v1.5h3.1v1h-4.3Z"/>
    <path class="cls-5" d="M151.7,66.7v-5.7h2.2c.8,0,1.4.3,1.8.8.5.5.7,1.2.7,2.1s-.3,1.7-.9,2.2c-.4.4-1,.5-1.7.5h-2.1ZM152.9,65.7h.9c.5,0,.9-.2,1.1-.5s.4-.8.4-1.3-.1-1.1-.4-1.4c-.3-.3-.6-.5-1.1-.5h-.9v3.7Z"/>
    <path class="cls-5" d="M159.8,66.8c-.7,0-1.3-.2-1.7-.5s-.6-.8-.6-1.4v-3.9h1.2v3.9c0,.7.4,1,1.1,1s.6,0,.8-.3c.2-.2.3-.4.3-.7v-3.8h1.2v3.9c0,.6-.2,1.1-.6,1.4-.4.3-.9.5-1.6.5h0Z"/>
    <path class="cls-5" d="M165.1,66.7v-5.7h2.5c.6,0,1.1,0,1.4.4.3.3.5.6.5,1.1s-.3.9-.9,1.1h0c.3,0,.6.3.8.5s.3.5.3.9-.2.9-.5,1.2c-.3.3-.8.5-1.4.5h-2.7ZM166.3,63.3h1.3c.3,0,.5,0,.6-.2.2,0,.2-.3.2-.5s0-.4-.2-.5c-.1,0-.3-.2-.6-.2h-1.3v1.4ZM166.3,64.1v1.6h1.3c.3,0,.5,0,.7-.2.2,0,.2-.3.2-.6s0-.5-.3-.6c-.2,0-.4-.2-.7-.2h-1.3.1Z"/>
    <path class="cls-5" d="M175.8,63.5v3.2h-1v-1.6h-2.9v1.6h-1v-3.2c0-1.5,1-2.5,2.5-2.5s2.5.9,2.5,2.5h-.1ZM171.9,64.2h2.9v-.7c0-1-.6-1.5-1.4-1.5s-1.4.6-1.4,1.5v.7h-.1ZM173.4,60.1l-.5.7h-.8l.9-1.1h.9l.8,1h-.8l-.5-.6h0Z"/>
    <path class="cls-5" d="M176.9,62v-1h4.6v1h-1.7v4.7h-1.2v-4.7h-1.7Z"/>
    <path class="cls-5" d="M182.6,66.7v-5.7h1.2v5.7h-1.2Z"/>
    <path class="cls-5" d="M185.1,66.7v-5.7h1.6l.8,2.9c0,.2.1.4.2.7,0,.3.1.5.1.6v.2h0c.1-.5.2-1.1.4-1.5l.8-2.9h1.6v5.7h-1.1v-4.4h0c0,.4-.2.8-.2,1.1l-1,3.4h-1.1l-1-3.4-.2-1.1h0v4.5h-1.1.2Z"/>
    <path class="cls-5" d="M192.1,66.7v-5.7h4.2v1h-3v1.3h2.7v.9h-2.7v1.5h3.1v1h-4.3Z"/>
    <path class="cls-5" d="M197.5,66.7v-5.7h1.2l1.9,3.2s.1.2.2.3.1.2.2.3h0v-3.9h1.1v5.7h-1.1l-1.9-3.1s-.1-.2-.2-.3c0,0-.1-.2-.2-.3h0v3.8h-1.2Z"/>
    <path class="cls-5" d="M203.2,62v-1h4.6v1h-1.7v4.7h-1.2v-4.7h-1.7Z"/>
  </g>
</svg>