<?xml version="1.0" encoding="UTF-8"?>
<svg id="Layer_1" data-name="Layer 1" xmlns="http://www.w3.org/2000/svg" viewBox="0 0 209.86 68.29">
  <rect width="209.86" height="68.29" fill="#fff" stroke-width="0"/>
  <g>
    <path d="M49.43,67.01v-5.76h4.23v.98h-3.07v1.29h2.69v.96h-2.69v1.55h3.09v.97h-4.26Z" fill="#f16b3b" stroke-width="0"/>
    <path d="M54.91,67.01v-5.76h1.18l1.92,3.21c.05.09.11.2.18.34s.12.25.16.34l.06.13h.02c-.02-.4-.03-.73-.03-1v-3.02h1.15v5.76h-1.13l-1.96-3.18c-.05-.09-.12-.2-.19-.33-.07-.13-.12-.24-.16-.33l-.06-.13h-.02c.02.4.03.74.03,1.01v2.97h-1.15Z" fill="#f16b3b" stroke-width="0"/>
    <path d="M60.62,62.24v-.98h4.63v.98h-1.73v4.77h-1.17v-4.77h-1.73Z" fill="#f16b3b" stroke-width="0"/>
    <path d="M66.33,67.01v-5.76h2.64c.55,0,1,.15,1.34.44.34.29.51.68.51,1.16,0,.74-.35,1.2-1.05,1.39v.02c.27.08.48.21.62.38.14.17.22.43.26.78.01.13.02.28.04.46.01.17.02.31.03.41,0,.1.02.2.03.31s.03.18.06.24c.02.06.05.09.09.11v.06h-1.12s-.04-.03-.06-.06c-.02-.03-.03-.07-.04-.12s-.02-.11-.03-.17c0-.06-.02-.13-.02-.22,0-.09-.01-.17-.02-.23,0-.07-.01-.16-.02-.27,0-.11-.02-.2-.02-.26-.05-.65-.42-.98-1.13-.98h-.94v2.31h-1.17ZM67.5,62.2v1.6h1.24c.31,0,.54-.07.7-.22.16-.14.25-.34.25-.57s-.08-.44-.23-.59c-.16-.15-.38-.23-.68-.23h-1.27Z" fill="#f16b3b" stroke-width="0"/>
    <path d="M72.06,67.01v-5.76h4.23v.98h-3.07v1.29h2.69v.96h-2.69v1.55h3.09v.97h-4.26Z" fill="#f16b3b" stroke-width="0"/>
    <path d="M77.53,67.01v-5.76h2.53c.65,0,1.16.18,1.51.54.34.35.52.79.52,1.31,0,.55-.17.99-.52,1.32-.34.33-.81.5-1.41.5h-1.42v2.08h-1.21ZM78.74,62.27v1.71h1.21c.3,0,.53-.08.69-.23.16-.15.24-.36.24-.63s-.08-.48-.24-.62c-.16-.15-.39-.22-.68-.22h-1.22Z" fill="#f16b3b" stroke-width="0"/>
    <path d="M83.15,67.01v-5.76h2.64c.55,0,1,.15,1.34.44.34.29.51.68.51,1.16,0,.74-.35,1.2-1.05,1.39v.02c.27.08.48.21.62.38.14.17.22.43.26.78.01.13.02.28.04.46.01.17.02.31.03.41,0,.1.02.2.03.31s.03.18.06.24c.02.06.05.09.09.11v.06h-1.12s-.04-.03-.06-.06c-.02-.03-.03-.07-.04-.12s-.02-.11-.03-.17c0-.06-.02-.13-.02-.22,0-.09-.01-.17-.02-.23,0-.07-.01-.16-.02-.27,0-.11-.02-.2-.02-.26-.05-.65-.42-.98-1.13-.98h-.94v2.31h-1.17ZM84.32,62.2v1.6h1.24c.31,0,.54-.07.7-.22.16-.14.25-.34.25-.57s-.08-.44-.23-.59c-.16-.15-.38-.23-.68-.23h-1.27Z" fill="#f16b3b" stroke-width="0"/>
    <path d="M88.89,67.01v-5.76h1.17v5.76h-1.17Z" fill="#f16b3b" stroke-width="0"/>
    <path d="M93.68,67.14c-.78,0-1.38-.17-1.81-.5-.43-.33-.65-.8-.68-1.41h1.14c.04.34.16.59.37.74.21.15.52.23.93.23.33,0,.6-.06.81-.18.21-.12.31-.31.31-.56,0-.09-.01-.17-.04-.25-.02-.07-.07-.14-.15-.19-.08-.06-.14-.1-.19-.14-.05-.03-.15-.07-.3-.11-.15-.04-.25-.07-.33-.09-.08-.02-.21-.05-.42-.1-.25-.06-.45-.11-.61-.15-.16-.04-.33-.11-.52-.2s-.34-.19-.45-.3-.2-.25-.28-.43c-.08-.18-.11-.38-.11-.62,0-.55.2-.98.61-1.28.41-.3.94-.45,1.6-.45s1.18.16,1.57.47.61.75.65,1.33h-1.12c-.03-.28-.15-.49-.35-.64s-.45-.23-.76-.23-.57.06-.76.19c-.19.12-.28.29-.28.49,0,.22.09.38.28.48s.51.2.98.31c.28.06.51.11.68.17.18.05.37.12.58.22s.37.2.48.31c.12.11.21.26.29.45s.12.4.12.64c0,.57-.21,1.01-.62,1.34-.41.32-.95.48-1.62.48Z" fill="#f16b3b" stroke-width="0"/>
    <path d="M97.1,67.01v-5.76h4.23v.98h-3.07v1.29h2.69v.96h-2.69v1.55h3.09v.97h-4.26Z" fill="#f16b3b" stroke-width="0"/>
    <path d="M108.64,67.01l-.04-.77h-.02c-.35.6-.89.89-1.62.89-.84,0-1.52-.28-2.02-.84-.5-.56-.75-1.27-.75-2.14,0-.99.31-1.77.94-2.35.48-.44,1.1-.66,1.85-.66.7,0,1.27.17,1.69.52.42.35.68.82.78,1.4h-1.14c-.07-.29-.21-.52-.43-.7-.22-.17-.51-.26-.86-.26-.52,0-.92.19-1.2.57-.28.38-.42.87-.42,1.47s.15,1.08.44,1.47c.29.38.68.57,1.17.57.43,0,.78-.13,1.06-.4.28-.27.42-.57.42-.91v-.03h-1.39v-.9h2.42v3.06h-.88Z" fill="#f16b3b" stroke-width="0"/>
    <path d="M110.82,67.01v-5.76h4.23v.98h-3.07v1.29h2.69v.96h-2.69v1.55h3.09v.97h-4.26ZM114.18,59.94l-.76,1.01h-.85l.34-1.01h1.28Z" fill="#f16b3b" stroke-width="0"/>
    <path d="M116.3,67.01v-5.76h1.18l1.92,3.21c.05.09.11.2.18.34s.12.25.16.34l.06.13h.02c-.02-.4-.03-.73-.03-1v-3.02h1.15v5.76h-1.13l-1.96-3.18c-.05-.09-.12-.2-.19-.33-.07-.13-.12-.24-.16-.33l-.06-.13h-.02c.02.4.03.74.03,1.01v2.97h-1.15Z" fill="#f16b3b" stroke-width="0"/>
    <path d="M122.31,67.01v-5.76h4.23v.98h-3.07v1.29h2.69v.96h-2.69v1.55h3.09v.97h-4.26ZM125.67,59.94l-.76,1.01h-.85l.34-1.01h1.28Z" fill="#f16b3b" stroke-width="0"/>
    <path d="M127.78,67.01v-5.76h2.64c.55,0,1,.15,1.34.44.34.29.51.68.51,1.16,0,.74-.35,1.2-1.05,1.39v.02c.27.08.48.21.62.38.14.17.22.43.26.78.01.13.02.28.04.46.01.17.02.31.03.41,0,.1.02.2.03.31s.03.18.06.24c.02.06.05.09.09.11v.06h-1.12s-.04-.03-.06-.06c-.02-.03-.03-.07-.04-.12s-.02-.11-.03-.17c0-.06-.02-.13-.02-.22,0-.09-.01-.17-.02-.23,0-.07-.01-.16-.02-.27,0-.11-.02-.2-.02-.26-.05-.65-.42-.98-1.13-.98h-.94v2.31h-1.17ZM128.95,62.2v1.6h1.24c.31,0,.54-.07.7-.22.16-.14.25-.34.25-.57s-.08-.44-.23-.59c-.16-.15-.38-.23-.68-.23h-1.27Z" fill="#f16b3b" stroke-width="0"/>
    <path d="M138.54,63.77v3.24h-1.03v-1.61h-2.9v1.61h-1.05v-3.24c0-1.54,1.03-2.48,2.49-2.48s2.49.94,2.49,2.48ZM134.61,64.49h2.9v-.72c0-.99-.6-1.55-1.46-1.55s-1.44.56-1.44,1.55v.72Z" fill="#f16b3b" stroke-width="0"/>
    <path d="M139.97,67.01v-5.76h1.17v4.78h2.71v.97h-3.87Z" fill="#f16b3b" stroke-width="0"/>
    <path d="M144.96,67.01v-5.76h4.23v.98h-3.07v1.29h2.69v.96h-2.69v1.55h3.09v.97h-4.26Z" fill="#f16b3b" stroke-width="0"/>
    <path d="M152.28,67.01v-5.76h2.25c.76,0,1.37.27,1.84.82.46.55.69,1.25.69,2.11,0,.99-.31,1.75-.92,2.26-.45.37-1.01.56-1.71.56h-2.15ZM153.45,66.01h.9c.53,0,.92-.15,1.16-.46s.36-.76.36-1.35-.13-1.06-.38-1.41c-.25-.35-.62-.53-1.11-.53h-.93v3.75Z" fill="#f16b3b" stroke-width="0"/>
    <path d="M160.4,67.11c-.74,0-1.3-.17-1.69-.5-.39-.34-.58-.82-.58-1.45v-3.9h1.17v3.9c0,.68.36,1.01,1.08,1.01.36,0,.63-.09.81-.28.18-.19.27-.44.27-.75v-3.89h1.17v3.9c0,.62-.19,1.1-.57,1.44-.38.34-.93.51-1.66.51Z" fill="#f16b3b" stroke-width="0"/>
    <path d="M165.8,67.01v-5.76h2.58c.62,0,1.08.14,1.39.42.31.27.46.63.46,1.08,0,.56-.3.95-.9,1.15v.02c.32.1.58.27.78.52.2.25.29.55.29.9,0,.51-.17.91-.51,1.2-.35.31-.83.46-1.45.46h-2.64ZM166.97,63.58h1.26c.26,0,.46-.06.62-.18.16-.12.23-.29.23-.51s-.07-.38-.22-.5c-.15-.12-.35-.18-.61-.18h-1.29v1.37ZM166.97,64.44v1.61h1.35c.28,0,.5-.07.66-.21.16-.14.24-.33.24-.57,0-.26-.09-.47-.26-.61-.17-.15-.4-.22-.67-.22h-1.31Z" fill="#f16b3b" stroke-width="0"/>
    <path d="M176.6,63.77v3.24h-1.03v-1.61h-2.9v1.61h-1.05v-3.24c0-1.54,1.03-2.48,2.49-2.48s2.49.94,2.49,2.48ZM172.67,64.49h2.9v-.72c0-.99-.6-1.55-1.46-1.55s-1.44.56-1.44,1.55v.72ZM174.13,60.32l-.47.66-.85-.05.86-1.02h.92l.85,1.02-.84.05-.47-.66Z" fill="#f16b3b" stroke-width="0"/>
    <path d="M177.73,62.24v-.98h4.63v.98h-1.73v4.77h-1.17v-4.77h-1.73Z" fill="#f16b3b" stroke-width="0"/>
    <path d="M183.45,67.01v-5.76h1.17v5.76h-1.17Z" fill="#f16b3b" stroke-width="0"/>
    <path d="M186,67.01v-5.76h1.64l.81,2.89c.06.21.12.45.18.71.06.26.11.47.14.62l.04.23h.02c.1-.55.22-1.07.35-1.55l.81-2.89h1.67v5.76h-1.09v-3.3l.05-1.19h-.02c-.09.45-.17.82-.25,1.09l-.99,3.4h-1.12l-.97-3.4-.25-1.09h-.02c.03.48.05.88.05,1.19v3.3h-1.07Z" fill="#f16b3b" stroke-width="0"/>
    <path d="M193.05,67.01v-5.76h4.23v.98h-3.07v1.29h2.69v.96h-2.69v1.55h3.09v.97h-4.26Z" fill="#f16b3b" stroke-width="0"/>
    <path d="M198.52,67.01v-5.76h1.18l1.92,3.21c.05.09.11.2.18.34s.12.25.16.34l.06.13h.02c-.02-.4-.03-.73-.03-1v-3.02h1.15v5.76h-1.13l-1.96-3.18c-.05-.09-.12-.2-.19-.33-.07-.13-.12-.24-.16-.33l-.06-.13h-.02c.02.4.03.74.03,1.01v2.97h-1.15Z" fill="#f16b3b" stroke-width="0"/>
    <path d="M204.24,62.24v-.98h4.63v.98h-1.73v4.77h-1.17v-4.77h-1.73Z" fill="#f16b3b" stroke-width="0"/>
  </g>
  <path d="M42.71,43.45c-.39-2.7-1.32-5.32-2.74-7.66-1.32-2.17-3.01-4.1-5-5.67-3.65-2.88-8.33-4.48-12.97-4.49-1.98,0-3.97.3-5.87.85-1.78.52-3.49,1.27-5.06,2.24-.8.49-1.57,1.03-2.29,1.61-.73.58-1.34,1.36-2.09,1.91.11-.23.28-.45.42-.66l1.07-1.06,1.18-1.07,1.65-1.3,2.13-1.3V.67h-.23l-1.18.71-2.48,1.55-2.85,1.78-3.08,1.9-2.25,1.42v31.87c0,2.7-.18,5.41.03,8.11.18,2.48.73,4.91,1.74,7.19.77,1.78,1.8,3.44,3.04,4.94,1.48,1.79,3.27,3.32,5.26,4.52.77.47,1.59.9,2.43,1.26.71.31,1.46.5,2.2.75,3.89,1.3,8.18,1.25,12.11.09,3.92-1.15,7.54-3.4,10.19-6.54,2.79-3.31,4.43-7.51,4.8-11.81.14-1.65.09-3.31-.15-4.94h0ZM33.1,47.92c-.28,2.43-1.34,4.76-3.04,6.52-3.08,3.2-8.06,4.3-12.17,2.64-2.1-.84-3.97-2.33-5.22-4.22-1.82-2.77-2.33-6.35-1.34-9.51.99-3.16,3.44-5.82,6.52-7.05,4.3-1.72,9.37-.54,12.45,2.9,1.27,1.42,2.21,3.17,2.62,5.05.27,1.21.31,2.44.18,3.66h0Z" fill="#f16b3b" stroke-width="0"/>
  <path d="M15.28,67.46H1.06v-14.44c.46,1.1.95,2.18,1.48,3.25,1.06,2.16,2.47,4.11,4.16,5.79,1.61,1.6,3.47,2.9,5.47,3.97,1,.54,2.05,1.02,3.12,1.44h0Z" fill="#3b3b48" stroke-width="0"/>
  <path d="M14.23,2.8v23.33c3.46-1.52,7.27-2.02,11.01-1.86.07,0,1.19.05,1.19.08v-14.44L14.23,2.8h0Z" fill="#3b3b48" stroke-width="0"/>
  <g>
    <path d="M75.24,43.52c-.36-1.02-.95-1.95-1.7-2.73-.94-.97-2.04-1.45-3.23-2.03,2.16-.9,3.93-2.66,4.36-5.02.29-1.6-.08-3.31-1-4.65-.81-1.17-2-2.04-3.3-2.62-2.17-.98-4.41-1.19-6.76-1.17-1.34.01-2.68.01-4.02.01-3.36,0-6.72,0-10.08,0h-.12v28.95h5.19c3.06,0,6.13.02,9.19.02,1.58,0,3.17-.09,4.71-.45,2.18-.51,4.3-1.6,5.65-3.38,1.37-1.81,1.85-4.27,1.24-6.45-.04-.16-.09-.31-.15-.47ZM57.93,32.52c.08-.2.42-.12.59-.12.26,0,.51,0,.77,0,.51,0,1.02,0,1.53,0,.89,0,1.78-.05,2.67,0,.41.02.84.07,1.21.26.45.23.79.63.98,1.1.18.47.22.99.13,1.48-.09.49-.3.98-.67,1.32-.49.46-1.19.63-1.86.66-.78.04-1.58.01-2.36.02-.84,0-1.67.01-2.51.01h-.38l-.11-.12v-3.73c0-.15-.06-.65.02-.87ZM66.62,46.34c-.12.44-.37.85-.71,1.16-.69.61-1.65.77-2.56.83-1.05.07-2.1.07-3.16.05-.4,0-.8-.01-1.2-.02-.2,0-.4,0-.6,0-.13,0-.35.06-.44-.08-.02-.03-.03-.07-.03-.11-.04-.41,0-.84,0-1.25v-3.76c1.57,0,3.13-.02,4.7-.05.7-.01,1.41.02,2.09.22.86.25,1.65.79,1.92,1.68.13.43.12.9,0,1.33Z" fill="#383948" stroke-width="0"/>
    <path d="M90.38,25.16c-2.75.39-5.36,1.62-7.46,3.43-2.47,2.13-3.59,4.63-4.12,7.81-.15.91-.27,18.21-.08,18.21h8.39l.12-.11.12-6.39h10.05l.11,6.39.12.11h8.4l.11-.11v-9.26c0-3.23.24-6.82-.4-10.1-1.35-6.9-8.65-10.94-15.34-9.98ZM97.5,41.97h-10.16s-.12-.12-.12-.12c-.31-.31,0-2.47,0-2.96.03-1.87.28-3.65,1.77-4.96,1.27-1.11,3.11-1.52,4.73-1.06,4.15,1.18,3.77,5.68,3.77,9.1Z" fill="#383948" stroke-width="0"/>
    <path d="M207.9,35.62c-.46-2.73-1.52-5.24-3.86-7.21-2.29-1.93-5.25-2.97-8.23-3.21-3.58-.3-7.31.55-10.19,2.7-4.53,3.38-4.92,8.62-4.92,13.84v12.77l.11.11h8.4l.12-.11.11-6.39h10.17v6.5h8.39l.12-.11s.12-12.78.12-12.88c.02-2.02-.01-4.06-.34-6ZM199.61,41.97s-10.28,0-10.28,0c-.05-.06-.04-.19-.05-.27-.02-.19-.02-.38-.02-.57,0-.53,0-1.07.02-1.6.02-.57.03-1.15.1-1.72.09-.73.28-1.45.58-2.13.08-.19.17-.39.28-.56.24-.42.56-.81.91-1.14.56-.53,1.24-.91,1.98-1.12.06-.02.13-.03.19-.05.58-.14,1.19-.18,1.78-.1,3.29.45,4.49,3.55,4.51,6.49,0,.21,0,2.77,0,2.77Z" fill="#383948" stroke-width="0"/>
    <polygon points="108.14 32.16 116.53 32.28 116.53 54.26 125.04 54.26 125.16 54.14 125.16 32.28 133.55 32.16 133.55 25.31 108.14 25.31 108.14 32.16" fill="#383948" stroke-width="0"/>
    <polygon points="136.39 54.26 144.78 54.26 144.89 54.14 144.89 25.31 136.39 25.31 136.39 54.26" fill="#383948" stroke-width="0"/>
    <path d="M177.4,52.25l-1.66-2.59-2.01-3.08-3.89-6.02-2.25-3.43,2.47-2.98c2.61-2.94,5.27-5.84,7.85-8.8-3.36-.07-6.73-.04-10.09-.04l-.46.53-.08.1-3.63,4.17-.6.68-4.57,5.26-.11-10.75h-8.63v28.95h8.51l.12-.12.11-6.85,3-3.35.09-.09.25.36.92,1.42,1.31,2.01,1.77,2.72.85,1.41h.01s.02.05.02.05l.78,1.21.8,1.24h10.46l-1.28-1.91-.07-.1Z" fill="#383948" stroke-width="0"/>
  </g>
</svg>